<?xml version="1.0" encoding="UTF-8" standalone="no"?>
<svg
   width="1000"
   height="1000"
   version="1.1"
   id="svg12"
   sodipodi:docname="puro.svg"
   xml:space="preserve"
   inkscape:version="1.2.1 (9c6d41e410, 2022-07-14)"
   xmlns:inkscape="http://www.inkscape.org/namespaces/inkscape"
   xmlns:sodipodi="http://sodipodi.sourceforge.net/DTD/sodipodi-0.dtd"
   xmlns="http://www.w3.org/2000/svg"
   xmlns:svg="http://www.w3.org/2000/svg"><defs
     id="defs16" /><sodipodi:namedview
     id="namedview14"
     pagecolor="#7e56c2"
     bordercolor="#000000"
     borderopacity="0.25"
     inkscape:showpageshadow="2"
     inkscape:pageopacity="0"
     inkscape:pagecheckerboard="0"
     inkscape:deskcolor="#d1d1d1"
     showgrid="false"
     inkscape:zoom="0.72619866"
     inkscape:cx="425.5034"
     inkscape:cy="452.35556"
     inkscape:window-width="1546"
     inkscape:window-height="1230"
     inkscape:window-x="3421"
     inkscape:window-y="95"
     inkscape:window-maximized="0"
     inkscape:current-layer="svg12" /><g
     id="g143"><path
       style="fill:#5d4191;stroke:none"
       d="m 306,367 c -8.977,1.209 -18.395,3.148 -27,6.001 -3.295,1.092 -8.781,2.361 -6.953,7.003 2.744,6.966 12.007,12.879 17.671,17.355 1.937,1.531 5.819,4.338 4.361,7.254 -1.661,3.327 -7.962,4.898 -11.079,6.415 -4.362,2.123 -8.501,4.68 -13,6.52 -5.235,2.141 -12.549,3.931 -16.606,8.089 -4.87,4.99 1.512,13.241 4.733,17.274 10.722,13.423 24.828,22.144 36.873,34.089 -3.963,1.259 -7.919,2.208 -12,3 2.906,13.426 14.187,21.032 24.985,27.95 4.913,3.147 9.344,6.416 15.015,8.05 -4.344,2.449 -8.863,4.148 -13,7 7.862,10.277 22.91,16.864 35,20.653 5.655,1.772 11.618,2.649 17,5.263 7.942,3.857 15.978,12.954 21,20.084 -25.27,0 -49.878,6.878 -75,6.999 -5.576,0.027 -11.493,0.528 -17,-0.463 -16.573,-2.983 -32.73,-9.753 -50,-8.442 -5.103,0.388 -9.257,2.932 -14,4.5 -3.587,1.187 -7.421,1.292 -11,2.51 -8.026,2.731 -15.279,8.843 -19.891,15.896 -3.368,5.15 -2.479,10.826 -5.048,16 -7.165,14.426 -11.393,28.584 -8.445,45 1.115,6.207 5.08845,9.27325 9.02845,14.29925 1.824,2.325 4.17658,4.68859 5.70558,7.19259 1.375,2.251 -0.43403,8.02816 0.20697,10.50816 0.724,2.803 2.258,5.377 3.443,8 -5.539,1.365 -11.016,2.202 -16,5.213 -9.605,5.802 -13.47,15.598 -20.61,23.524 -2.205,2.448 -5.302,3.831 -7.63,6.166 -5.236,5.251 -8.833,11.915 -10.524,19.097 -1.441,6.118 -1.717,12.757 -0.95,19 0.438,3.56 1.859,7.406 1.563,11 -0.629,7.624 -6.169,15.187 -7.528,23 -2.381,13.687 2.004,24.237 5.679,37 2.995,0 3.21,3.35 4.167,6 2.197,6.085 3.245,12.26 6.833,18 3.96,6.335 7.658,12.989 12.333,18.833 3.983,4.979 9.591,8.046 14.667,11.5 5.418,3.687 10.387,7.648 16,11 15.74471,10.068 27.01137,17.94258 47,20.797 10.721,1.511 20.999,5.856 31.91,5.774 15.43336,-0.26423 28.38903,-4.11749 40.09,-6.571 17.14797,-2.8839 33.7959,-8.91154 49,-14.125 11.932,-4.262 24.185,-8.111 36,-12.636 15.225,-5.831 29.758,-13.568 46,-16.286 19.368,-3.242 39.45,-0.469 59,-1.325 14.092,-0.617 28.939,-5.275 43,-2.292 14.619,3.101 27.775,12.127 42,16.737 8.156,2.643 16.811,3.121 25,5.565 11.016,3.286 21.838,7.47 32.911,10.518 12.986,3.575 26.795,4.764 40.089,6.681 14.802,2.134 28.958,3.83 44,3.83 9.984,0 20.151,0.642 30,-1.314 3.456,-0.686 6.584,-2.349 10,-3.161 8.099,-1.926 16.414,-3.162 24,-6.898 25.341,-12.482 36.148,-35.773 48.273,-59.627 3.027,-5.955 7.114,-11.341 10.357,-17.17 7.833,-14.075 13.726,-30.684 15.081,-46.83 0.53,-6.325 0.351,-13.372 -2.939,-19 -2.046,-3.501 -5.416,-6.155 -6.879,-10 -2.621,-6.89 -1.053,-14.033 -4.718,-21 -4.174,-7.934 -11.636,-10.792 -17.875,-16.518 -3.149,-2.89 -5.366,-6.65 -8.315,-9.737 C 823.638,697.009 813.547,688.938 802,685 c 2.603,-3.387 5.47,-6.967 7.005,-11 0.989,-2.596 0.802,-5.482 2.007,-8 1.219,-2.545 3.344,-4.537 4.711,-7 3.111,-5.604 3.855,-12.715 3.093,-19 -0.758,-6.245 -5.421,-10.364 -6.69,-16.089 -1.588,-7.163 -0.715,-14.189 -4.489,-20.911 -2.894,-5.154 -7.529,-7.938 -11.039,-12.375 -3.091,-3.907 -4.221,-9.447 -7.358,-13.624 -6.162,-8.207 -17.562,-14.662 -27.24,-17.896 -10.707,-3.578 -26.147,-1.429 -37,0.699 -5.032,0.987 -12.953,4.571 -17.41,0.839 -3.629,-3.039 -10.657,-11.428 -8.457,-16.6 1.079,-2.537 3.746,-4.046 5.868,-5.597 4.866,-3.558 9.909,-7.111 14.07,-11.5 1.777,-1.874 4.235,-4.13 4.177,-6.942 -0.065,-3.163 -3.055,-5.236 -5.248,-7.004 15.026,-6.173 27.929,-15.798 39.961,-26.579 3.359,-3.011 10.757,-9.189 8.822,-14.406 -1.108,-2.988 -4.367,-5.043 -6.783,-6.885 -5.355,-4.081 -11.065,-7.499 -15.999,-12.106 -1.775,-1.658 -4.975,-3.723 -5.655,-6.194 -0.752,-2.73 2.026,-5.047 3.634,-6.83 4.484,-4.974 15.342,-14.253 7.958,-20.391 -1.803,-1.499 -3.949,-2.692 -5.938,-3.924 -2.607,-1.615 -5.068,-2.822 -8,-3.685 8.556,-26.303 17.781,-53.465 21.24,-81 2.479,-19.731 0.434,-39.326 0.814,-59 0.301,-15.578 1.928,-31.356 0.857,-47 -1.422,-20.765 -5.767,-40.136 -11.709,-60 -3.374,-11.282 -6.133,-22.679 -9.342,-34 -1.794,-6.327 -3.142,-13.426 -6.829,-18.985 -2.069,-3.119 -4.928,-5.079 -8.031,-7.061 -3.758,-2.401 -7.521,-4.735 -12,-5.4718 -13.84,-2.2755 -25.271,11.0408 -35,18.6348 -19.149,14.944 -42.882,26.707 -57.251,46.883 -10.055,14.118 -14.12,32.567 -18.749,49 -19.831,-7.639 -41.542,-4.419 -59,8 2.269,-12.224 2.36,-33.75 -9.001,-41.046 -3.237,-2.079 -6.912,-4.979 -10.999,-4.211 -5.358,1.007 -10.834,5.645 -15,8.926 -13.055,10.282 -25.925,26.295 -31,42.331 -2,-6.765 -0.475,-14.05 -1.805,-21 -3.76,-19.656 -10.812,-41.125 -21.743,-58 C 439.145,130.001 419.633,118.133 405.518,101.039 396.322,89.9038 387.487,78.5335 374,72.436 c -6.266,-2.8328 -13.56,-4.692 -19.815,-0.4267 -6.559,4.4731 -7.84,14.1171 -10.483,20.9907 -5.225,13.591 -12.956,25.812 -19.011,39 -5.603,12.205 -12.581,24.173 -16.662,37 -7.787,24.474 -9.903,51.655 -13.318,77 -2.251,16.711 -8.077,33.99 -6.54,51 1.359,15.046 3.808,29.612 8.499,44 2.759,8.464 8.429,17.199 9.33,26 z"
       id="path124"
       sodipodi:nodetypes="cccccsscccccccccccccccccccccccccccccccssccccccscscscccscccscccccsccccccccccsccsccccccccccccccscccccccccccccccccscccccccc" /><path
       style="fill:#5d4191;stroke:none"
       d="m 423,356.424 c -10.601,1.409 -21.203,2.144 -29.907,9.186 -10.454,8.457 -12.16,25.038 -10.517,37.39 0.866,6.513 1.855,13.022 4.851,19 5.07,10.112 13.411,15.949 22.573,21.864 13.023,8.409 25.055,14.221 41,12.006 16.522,-2.296 37.125,-7.649 50.961,-17.226 5.641,-3.904 11.036,-8.135 13.686,-14.644 3.085,-7.576 1.492,-18.092 0.507,-26 -0.995,-7.997 -3.594,-16.008 -9.258,-21.96 C 490.505,358.817 466.337,356 444,356 c -6.947,0 -14.103,-0.492 -21,0.424 m 156,13.004 c -5.631,0.798 -11.304,1.765 -15.815,5.5 -6.336,5.247 -8.755,14.354 -10.381,22.072 -2.297,10.902 -5.084,19.162 -0.275,30 4.561,10.279 14.261,17.306 23.471,23.065 11.043,6.905 21.946,13.21 34,18.224 7.842,3.261 15.105,7.44 24,6.257 10.83,-1.44 15.632,-7.023 22.025,-15.122 11.623,-14.725 19.356,-37.756 9.291,-55.423 -4.214,-7.395 -12.266,-11.518 -19.316,-15.798 -14.726,-8.939 -30.05,-14.208 -47,-16.957 -6.535,-1.06 -13.377,-2.756 -20,-1.818 z"
       id="path128" /></g><path
     id="rect476"
     style="fill:#ffffff"
     d="M 492.80664 241.66992 L 492.80664 249.07031 L 465.26562 249.07031 L 465.26562 258.0332 L 345.66797 258.0332 L 345.66797 523.36914 L 445.81445 523.36914 L 445.81445 541.86328 L 654.7793 541.86328 L 654.7793 523.36914 L 682.57031 523.36914 L 682.57031 258.0332 L 567.85352 258.0332 L 567.85352 249.07031 L 547.71484 249.07031 L 547.71484 241.66992 L 492.80664 241.66992 z " /><g
     id="g200"><path
       id="path4"
       style="fill:#1b1d2b;stroke:none"
       d="m 359.66406,67.339844 c -4.4583,0.280399 -9.03934,2.353584 -11.55859,5.765625 -5.067,6.862779 -6.44722,16.131155 -9.69922,23.894531 -4.773,11.39197 -11.56687,21.78803 -16.71484,33 -5.603,12.20497 -12.58114,24.17303 -16.66211,37 -7.787,24.47394 -9.90339,51.65509 -13.31836,77 -2.251,16.71094 -8.07606,33.99006 -6.53906,51 1.35897,15.04594 3.80707,29.61203 8.49804,44 2.759,8.46397 8.42908,17.19903 9.33008,26 -8.97697,1.209 -18.39503,3.14898 -27,6.00195 -3.295,1.092 -8.78112,2.35996 -6.95312,7.00196 2.74397,6.96597 12.0079,12.87947 17.67187,17.35547 1.937,1.53097 5.81737,4.3379 4.35937,7.2539 -1.66097,3.327 -7.96112,4.89709 -11.07812,6.41406 -4.362,2.123 -8.501,4.68149 -13,6.52149 -5.23497,2.141 -12.54847,3.92989 -16.60547,8.08789 -4.86997,4.98997 1.51145,13.24044 4.73242,17.27344 C 265.84892,454.3331 279.95503,463.05503 292,475 c -3.963,1.259 -7.919,2.208 -12,3 2.668,12.32797 13.50403,22.52855 25,26.93555 2.882,1.105 15.14614,3.60401 14.36914,7.95898 -0.605,3.39 -9.64714,6.22847 -12.36914,8.10547 8.11097,10.56897 26.72803,13.64822 39,17.07422 2.597,0.725 5.48738,0.42129 7.98438,1.44726 4.16297,1.71 6.5154,6.21252 9.3164,9.47852 5.332,6.21797 11.97222,11.29003 16.69922,18 -29.54091,0 -58.46809,8.30094 -88,6.96094 -8.80797,-0.4 -17.35203,-4.49925 -26,-6.15625 -9.01697,-1.729 -20.90003,-3.99552 -30,-2.47852 -4.624,0.77 -8.555,3.29634 -13,4.57031 -5.59097,1.602 -10.82003,2.00438 -16,4.98438 -6.84597,3.938 -13.68148,10.57817 -16.43945,18.11914 -1.187,3.247 -0.7613,6.832 -2.0293,10 -2.359,5.89297 -6.1895,10.69303 -7.9375,17 -2.037,7.35197 -0.83592,14.55603 -1.41992,22 -0.788,10.04697 4.0572,28.11 15.82617,29 -1.671,7.01997 0.124,11.63203 3,18 -5.53897,1.365 -11.016,2.20189 -16,5.21289 -9.60497,5.80197 -13.46938,15.59747 -20.60938,23.52344 -2.20497,2.448 -5.30288,3.83104 -7.63085,6.16601 -5.236,5.251 -8.83244,11.91569 -10.52344,19.09766 -1.441,6.11797 -1.71817,12.75703 -0.95117,19 0.438,3.56 1.86045,7.406 1.56445,11 -0.629,7.62397 -6.1703,15.18703 -7.5293,23 -2.85265,19.12482 4.54302,28.81765 9.51172,42 2.202,5.65997 3.125,11.40503 6,17 3.673,7.14597 8.49103,14.57106 13.5,20.83203 4.805,6.006 11.822,9.37303 17.66797,14 14.54581,10.09994 27.42849,17.6467 46,20.29883 10.72097,1.511 20.99919,5.85544 31.91016,5.77344 15.43398,-0.26332 28.38864,-4.11855 40.08984,-6.57227 17.14874,-2.88218 33.79589,-8.91134 49,-14.125 11.01097,-3.93297 21.90503,-7.8595 33,-11.5625 16.22994,-5.41597 31.01306,-13.97962 48,-17.18359 20.01094,-3.774 40.79506,-0.16781 61,-1.55078 14.65197,-1.004 30.50808,-5.62947 44.99805,-1.48047 7.18649,2.0577 14.00504,5.22419 20.83007,8.39843 5.96457,2.77405 11.93292,5.55646 18.17188,7.57813 8.15597,2.643 16.81103,3.12048 25,5.56445 11.01597,3.286 21.83719,7.46958 32.91016,10.51758 12.98594,3.575 26.79587,4.76464 40.08984,6.68164 15.14494,2.183 29.61306,3.83008 45,3.83008 9.66297,0 19.46603,0.57852 29,-1.31445 3.456,-0.686 6.584,-2.34816 10,-3.16016 9.25997,-2.203 18.59203,-3.70504 27,-8.54101 23.42594,-13.47297 33.52447,-34.86944 45.27344,-57.98438 3.02697,-5.95497 7.11442,-11.34095 10.35742,-17.16992 6.49697,-11.67297 10.52392,-23.81111 13.16992,-36.83008 1.381,-6.79797 2.80377,-13.44286 1.75977,-20.42383 -1.191,-7.96197 -7.72994,-11.58426 -9.83594,-18.61523 -2.523,-8.42197 -0.75231,-16.18906 -6.36328,-23.95703 -4.023,-5.569 -10.31038,-6.86456 -14.98438,-11.39453 -3.39097,-3.287 -5.57282,-7.73758 -8.84179,-11.18555 C 805.40019,684.73386 795.61597,680.008 781,680 c 2.776,-5.37897 7.29801,-9.58903 10.08398,-15 1.653,-3.21 1.40574,-6.819 2.92774,-10 1.219,-2.545 3.34394,-4.537 4.71094,-7 2.98897,-5.38397 3.67059,-11.95503 3.18359,-18 -0.545,-6.75197 -5.4253,-10.97887 -6.7793,-17.08984 -1.497,-6.753 -0.69489,-13.46819 -3.96289,-19.91016 -1.551,-3.058 -3.71015,-6.17237 -6.45312,-8.27734 -1.84,-1.413 -4.3676,-1.99042 -5.6836,-4.02539 C 777.58837,578.47127 777.84966,575.415 776.72266,573 773.14966,565.34503 766.98697,559.77447 759,557.10547 754.215,555.50647 748.972,556 744,556 c -11.65097,0 -22.66703,1.57387 -34,4.33984 -4.425,1.081 -8.463,2.99016 -13,3.66016 -0.97,-6.47297 -3.9788,-11.08009 -8.0918,-16.03906 -2.73497,-3.298 -7.35717,-8.32306 -7.20117,-12.95703 0.123,-3.632 3.69695,-5.6596 6.29492,-7.5586 4.866,-3.55797 9.90739,-7.111 14.06836,-11.5 C 706.65631,511.10734 707.82197,506.832 701,504 v -2 c 14.25297,-5.85597 26.44415,-14.80317 37.99609,-24.86914 3.712,-3.234 10.92029,-8.67424 11.11329,-14.11524 0.13597,-3.85697 -4.43938,-6.39776 -7.10938,-8.38476 -6.52097,-4.855 -17.42905,-10.24173 -21.24805,-17.7207 -1.631,-3.194 1.25352,-5.71916 3.22852,-7.91016 3,-3.329 11.50142,-11.05556 10.98242,-15.89453 -0.848,-7.90097 -17.12611,-4.43808 -16.41211,-13.12305 0.491,-5.97497 3.87202,-12.24945 5.54102,-17.98242 4.48997,-15.42594 9.9062,-31.15906 12.6582,-47 2.517,-14.48897 4.07109,-29.30003 4.24609,-44 0.119,-9.99897 -1.1324,-20.09303 -0.9414,-30 0.301,-15.57794 1.92647,-31.35606 0.85547,-47 -1.422,-20.76494 -5.76699,-40.13606 -11.70899,-60 C 726.5292,141.72403 723.547,129.30797 720,117 718.444,111.60103 717.2953,104.57573 713.36133,100.30273 709.70933,96.337254 703.694,96.966087 699,98.300781 688.14803,101.38688 679.62997,110.86416 671,117.66016 652.46706,132.2561 629.73099,143.36606 615.74805,163 605.69308,177.11797 601.629,195.56706 597,212 c -4.163,-1.604 -8.533,-3.57519 -13,-4.11719 -24.22194,-2.93397 -41.10706,11.10222 -62,20.11719 -0.437,-4.798 1.25275,-9.253 1.84375,-14 1.193,-9.57597 1.63386,-18.51503 -0.49414,-28 -0.616,-2.749 -0.49498,-8.21452 -2.37695,-10.35352 -1.575,-1.79097 -4.21061,-0.62633 -5.97461,0.18164 -5.409,2.479 -10.5631,6.41883 -14.9961,10.3418 C 482.60001,201.56889 471.75697,221.80606 466,244 c -2.996,-4.645 -6.78338,-9.61403 -8.23438,-15 -2.28197,-8.47297 -0.42068,-18.29603 -0.80468,-27 -0.37,-8.37297 -3.16108,-17.06303 -5.70508,-25 -4.373,-13.64697 -9.27959,-28.09703 -17.47656,-40 C 422.80433,121.06206 407.66497,109.3273 394,95.960938 c -8.98397,-8.788476 -16.90703,-25.231619 -30,-28.28711 -1.378,-0.321575 -2.84983,-0.427451 -4.33594,-0.333984 z M 593,236 c -1.03,4.495 -1.88895,11.22038 -5.41992,14.48438 -1.976,1.82697 -6.8493,3.30112 -8.4043,0.0781 -0.973,-2.015 0.72159,-4.05866 1.97656,-5.47266 C 584.35534,241.48187 588.537,237.804 593,236 Z m -69,9.67383 c 18.36294,0.665 36.34206,9.73182 52,18.46679 36.34788,20.27694 71.41633,46.9945 88.9043,85.85938 8.79397,19.54394 11.27453,41.89506 12.51953,63 0.459,7.76097 1.75747,15.25703 0.48047,23 -0.931,5.64997 -4.04355,9.75403 -5.93555,15 -1.299,3.603 -1.32261,7.431 -2.84961,11 -3.628,8.47597 -12.40086,12.83803 -16.13086,21 -1.385,3.032 -1.07112,6.748 -1.57812,10 -0.962,6.16697 -2.23564,12.15503 -4.47461,18 -1.433,3.741 -3.13402,8.23826 -7.04102,9.99023 -7.97397,3.576 -13.48456,-2.9911 -18.89453,-7.70507 -2.013,-1.754 -4.95616,-5.01227 -7.91016,-4.69727 -5.00897,0.534 -11.16593,9.22047 -15.1289,12.23047 -6.716,5.09997 -15.82797,8.3569 -23.96094,10.29687 -14.35697,3.425 -30.62003,2.48705 -45,-0.62695 -6.06297,-1.313 -11.74508,-4.36581 -17.83008,-5.38281 -9.30797,-1.556 -18.83895,1.44269 -28.16992,0.80469 -20.18294,-1.381 -40.21203,-8.83328 -55,-22.94922 -4.658,-4.447 -9.64,-8.86897 -12,-14.96094 -5.55697,3.43 -10.35403,8.13133 -16,11.36133 C 381.38906,510.0073 377.15878,479.80597 374.80078,468 c -0.6,-3.005 -0.76906,-6.66383 -2.16406,-9.42383 -4.655,-9.21797 -15.58011,-14.26611 -19.03711,-24.58008 -3.077,-9.17797 -0.0437,-17.75212 0.36133,-26.99609 0.262,-5.98097 -0.40678,-12.04603 0.32422,-18 2.36897,-19.28994 9.86984,-37.46608 19.88281,-53.99805 14.65894,-24.20691 38.44709,-46.49806 62.83203,-60.70703 19.56894,-11.40297 39.77206,-20.1684 62,-24.85937 7.89297,-1.665 16.91403,-4.05472 25,-3.76172 z m -94.51758,108.22656 c -3.18111,0.002 -6.35592,0.10794 -9.48242,0.52344 -11.04598,1.469 -23.38388,2.18613 -31.67188,10.78711 -7.08698,7.35398 -9.43721,18.96308 -9.32421,28.78906 0.1,8.65998 1.50584,18.18302 5.42382,26 9.232,18.41596 29.64231,27.63814 49.57227,24.86914 16.52196,-2.296 37.12496,-7.64763 50.96094,-17.22461 5.64098,-3.90398 11.03556,-8.13555 13.68554,-14.64453 3.085,-7.57598 1.49282,-18.09202 0.50782,-26 -1.083,-8.70398 -4.05294,-17.82972 -11.16992,-23.4707 C 474.8884,353.15132 454.75996,354 439,354 c -3.149,0 -6.33646,-0.10173 -9.51758,-0.0996 z m 151.27149,13.26563 c -1.59069,-0.0334 -3.17816,0.0385 -4.75391,0.26171 -5.63098,0.798 -11.30347,1.76502 -15.81445,5.5 -6.612,5.476 -8.92899,15.03929 -10.58399,23.07227 -2.131,10.34598 -4.54642,17.61902 -0.48242,28 7.14998,18.26296 28.3949,26.42194 44.88086,33.71094 7.40498,3.27398 14.56902,6.95692 23,5.83594 10.82998,-1.44 15.63241,-7.02407 22.02539,-15.12305 11.53498,-14.61298 19.488,-37.87123 9.29102,-55.40821 -3.394,-5.83698 -9.60143,-9.14834 -15.31641,-12.36132 -11.62898,-6.537 -25.00402,-9.44522 -38,-11.57422 -4.66575,-0.76425 -9.47405,-1.81385 -14.24609,-1.91406 z m -128.70703,1.67578 c 11.18593,-0.12496 18.14653,11.46562 18.76953,22.44336 0.936,16.47398 -9.15043,36.21678 -25.81641,40.92578 -11.59199,3.27599 -19.47394,-7.58795 -19.96094,-18.21094 -0.736,-16.05598 4.08596,-38.96257 21.96094,-44.35156 1.76425,-0.532 3.44888,-0.78879 5.04688,-0.80664 z m 131.86132,11.00781 c 8.93798,-1.00897 16.46641,6.96565 19.33203,15.15039 5.333,15.22898 5.95784,42.58458 -13.24414,49.26758 -8.89099,3.095 -16.20255,-7.60554 -19.56054,-14.26953 -7.249,-14.38499 -8.80653,-41.70264 9.56445,-49.14063 1.32487,-0.53637 2.63135,-0.86367 3.9082,-1.00781 z M 362.87891,667.66016 c 0.54256,0.0351 1.05782,0.17665 1.51757,0.47265 1.792,1.155 1.58371,4.03814 1.59571,5.86914 0.037,5.794 -1.89458,10.74806 -4.14258,15.99805 -3.786,8.83999 -7.79719,19.61702 -14.36719,26.79102 -5.70399,6.22899 -17.57943,12.21417 -25.48242,15.07617 -14.08999,5.10299 -26.35001,-13.61126 -36,-21.40625 -5.11399,-4.131 -11.096,-7.09894 -16,-11.46094 14.08699,-3.259 27.49301,-9.72949 41,-14.77148 9.48599,-3.54 19.41301,-5.95462 29,-9.22461 6.01099,-2.05 11.91701,-4.35936 18,-6.19336 1.37625,-0.41475 3.25122,-1.25582 4.87891,-1.15039 z m 268.64648,7.53711 c 2.5379,0.15923 5.18786,1.14723 7.47461,1.80273 6.63099,1.9 13.21001,4.25906 20,5.53906 15.11298,2.85 30.68602,6.80302 46,8.29102 5.58699,0.543 11.38901,1.14997 17,1.16797 3.605,0.012 7.544,-0.82805 11,0.002 -17.00598,6.73099 -32.67802,15.29552 -49,23.47852 -5.07499,2.54399 -9.59801,6.06765 -15,7.97265 -4.53,1.597 -9.325,1.47352 -14,2.35352 -8.12199,1.528 -18.77563,5.52606 -26.89062,2.16406 -4.302,-1.783 -5.51776,-8.00975 -7.09376,-11.96875 -2.65199,-6.65899 -6.66526,-19.94605 -4.44726,-26.99805 1.063,-3.38099 3.8187,-5.7222 6.0957,-8.2832 1.88,-2.114 3.41891,-4.71833 6.37891,-5.36133 0.80375,-0.17425 1.63645,-0.21323 2.48242,-0.16015 z"
       sodipodi:nodetypes="ssccccccccccccscccccccscccccccccccccccccccccccsccccccccssscccssccsccccccsccccccccccsscccccccccccsccccsscccsccccccccccccccccccssccccccccccccccscssccsccccccccscccccscccccccccsssscccsssscsssscsssssccssssccccsccccssccsccccccccccssc" /></g></svg>
